<svg class="entity" width="416" height="118" viewBox="0 0 416 118" fill="none" xmlns="http://www.w3.org/2000/svg" >
<path d="M0.201705 30V0.90909H12.2188C14.3968 0.90909 16.2765 1.33523 17.858 2.1875C19.4489 3.0303 20.6752 4.20928 21.5369 5.72443C22.3987 7.23011 22.8295 8.98201 22.8295 10.9801C22.8295 12.9877 22.3892 14.7443 21.5085 16.25C20.6373 17.7462 19.392 18.9062 17.7727 19.7301C16.1534 20.554 14.2311 20.9659 12.0057 20.9659H4.59091V15.4261H10.6989C11.7595 15.4261 12.6449 15.2415 13.3551 14.8722C14.0748 14.5028 14.6193 13.9867 14.9886 13.3239C15.358 12.6515 15.5426 11.8703 15.5426 10.9801C15.5426 10.0805 15.358 9.30398 14.9886 8.65057C14.6193 7.98769 14.0748 7.47633 13.3551 7.11648C12.6354 6.75663 11.75 6.5767 10.6989 6.5767H7.23295V30H0.201705ZM29.0724 30H21.5156L31.331 0.90909H40.6918L50.5071 30H42.9503L36.1179 8.23864H35.8906L29.0724 30ZM28.0639 18.5511H43.8594V23.892H28.0639V18.5511ZM71.2386 0.90909H78.2557V19.6733C78.2557 21.8419 77.7396 23.7311 76.7074 25.3409C75.6752 26.9413 74.2358 28.1818 72.3892 29.0625C70.5426 29.9337 68.3977 30.3693 65.9545 30.3693C63.483 30.3693 61.3239 29.9337 59.4773 29.0625C57.6307 28.1818 56.196 26.9413 55.1733 25.3409C54.1506 23.7311 53.6392 21.8419 53.6392 19.6733V0.90909H60.6705V19.0625C60.6705 20.0663 60.8883 20.9612 61.3239 21.7472C61.7689 22.5331 62.3892 23.1487 63.1847 23.5938C63.9801 24.0388 64.9034 24.2614 65.9545 24.2614C67.0057 24.2614 67.9242 24.0388 68.7102 23.5938C69.5057 23.1487 70.1259 22.5331 70.571 21.7472C71.0161 20.9612 71.2386 20.0663 71.2386 19.0625V0.90909ZM82.6626 30V0.90909H89.6939V24.2898H101.796V30H82.6626ZM114.03 30V0.90909H121.061V24.2898H133.163V30H114.03ZM143.835 0.90909V30H136.803V0.90909H143.835ZM175.706 15.4545C175.706 18.6553 175.09 21.3684 173.859 23.5938C172.628 25.8191 170.962 27.5095 168.859 28.6648C166.767 29.8201 164.418 30.3977 161.814 30.3977C159.2 30.3977 156.847 29.8153 154.754 28.6506C152.661 27.4858 151 25.7955 149.768 23.5795C148.547 21.3542 147.936 18.6458 147.936 15.4545C147.936 12.2538 148.547 9.54072 149.768 7.31534C151 5.08996 152.661 3.39962 154.754 2.24432C156.847 1.08901 159.2 0.511363 161.814 0.511363C164.418 0.511363 166.767 1.08901 168.859 2.24432C170.962 3.39962 172.628 5.08996 173.859 7.31534C175.09 9.54072 175.706 12.2538 175.706 15.4545ZM168.518 15.4545C168.518 13.5606 168.249 11.9602 167.709 10.6534C167.179 9.34659 166.411 8.35701 165.408 7.68466C164.413 7.01231 163.215 6.67614 161.814 6.67614C160.422 6.67614 159.224 7.01231 158.22 7.68466C157.216 8.35701 156.445 9.34659 155.905 10.6534C155.375 11.9602 155.109 13.5606 155.109 15.4545C155.109 17.3485 155.375 18.9489 155.905 20.2557C156.445 21.5625 157.216 22.5521 158.22 23.2244C159.224 23.8968 160.422 24.233 161.814 24.233C163.215 24.233 164.413 23.8968 165.408 23.2244C166.411 22.5521 167.179 21.5625 167.709 20.2557C168.249 18.9489 168.518 17.3485 168.518 15.4545ZM204.57 0.90909V30H198.604L187.027 13.2102H186.842V30H179.811V0.90909H185.862L197.311 17.6705H197.553V0.90909H204.57Z" stroke="white" stroke-width="1"/>
</svg>
